<svg width="24" height="24" viewBox="0 0 24 24" fill="none" xmlns="http://www.w3.org/2000/svg">
<path d="M11.9373 0C5.35508 0 0 5.38323 0 12C0 18.6163 5.35508 24 11.9373 24C18.5189 24 23.8745 18.6163 23.8745 12C23.8745 5.38323 18.5199 0 11.9373 0ZM14.9059 12.4225H12.9638C12.9638 15.5416 12.9638 19.381 12.9638 19.381H10.086C10.086 19.381 10.086 15.5788 10.086 12.4225H8.71805V9.9631H10.086V8.37235C10.086 7.23306 10.6246 5.45283 12.9903 5.45283L15.1228 5.46105V7.84838C15.1228 7.84838 13.8269 7.84838 13.575 7.84838C13.323 7.84838 12.9648 7.97503 12.9648 8.51833V9.96359H15.1574L14.9059 12.4225Z" transform="translate(0 -0.000488281)" fill="white"/>
</svg>
