<svg width="24" height="24" viewBox="0 0 24 24" fill="none" xmlns="http://www.w3.org/2000/svg">
<path d="M3.30191 0.280835C3.22449 0.229115 3.14515 0.173045 3.06197 0.116491C2.82011 0.0420529 2.56334 0.00338319 2.30032 -3.61402e-07H2.26859C1.05976 -3.61402e-07 1.79756e-07 0.735197 1.79756e-07 1.57432C1.79756e-07 2.48788 0.9083 3.20181 2.06712 3.20181C3.5957 3.20181 4.37032 2.67107 4.37032 1.627C4.37032 1.5284 4.35878 1.42592 4.33426 1.32297C4.23088 0.917909 3.86112 0.665109 3.30191 0.280835Z" transform="translate(7.03613 13.707)" fill="white"/>
<path d="M1.70603 3.77942C1.70699 3.77942 1.70699 3.77942 1.70699 3.77942C1.99598 3.77942 2.23976 3.66487 2.42873 3.44735C2.72493 3.10803 2.85619 2.5512 2.7783 1.96004C2.64126 0.903407 1.88971 0.0236848 1.10547 0.000966655L1.07421 -3.68778e-09C0.796771 -3.68778e-09 0.54914 0.115041 0.361133 0.331588C0.069265 0.666559 -0.0543109 1.19729 0.0221422 1.78748C0.159661 2.84315 0.927077 3.75526 1.69497 3.77942H1.70603Z" transform="translate(7.77563 7.02393)" fill="white"/>
<path d="M11.9373 0C5.35508 0 0 5.38323 0 12C0 18.6163 5.35508 24 11.9373 24C18.5189 24 23.8745 18.6163 23.8745 12C23.8745 5.38323 18.5199 0 11.9373 0ZM10.5611 17.8434C10.1101 17.9744 9.62202 18.0406 9.10993 18.0406C8.53966 18.0406 7.99151 17.9749 7.48038 17.8448C6.49129 17.594 5.76042 17.1183 5.41903 16.5054C5.27189 16.2406 5.19736 15.9583 5.19736 15.6658C5.19736 15.3647 5.26901 15.0592 5.41037 14.7566C5.95228 13.5956 7.38084 12.8145 8.96328 12.8145C8.97914 12.8145 8.99405 12.8145 9.00848 12.8145C8.88009 12.5868 8.81806 12.3509 8.81806 12.103C8.81806 11.9797 8.83441 11.854 8.86711 11.7259C7.20726 11.6882 5.96526 10.4663 5.96526 8.85523C5.96526 7.71788 6.86971 6.60952 8.16316 6.16193C8.55024 6.02755 8.945 5.95891 9.33304 5.95891H12.8826C13.0033 5.95891 13.1105 6.0377 13.148 6.15323C13.1855 6.26827 13.1442 6.39491 13.0465 6.46596L12.2527 7.04358C12.2051 7.07742 12.1479 7.09579 12.0887 7.09579H11.8045C12.1714 7.53806 12.3864 8.16885 12.3864 8.87698C12.3864 9.65858 11.993 10.3976 11.2771 10.9608C10.7241 11.3939 10.7025 11.5133 10.7025 11.7603C10.7092 11.8961 11.0943 12.3393 11.5194 12.6414C12.5094 13.3452 12.8778 14.0359 12.8778 15.1883C12.8773 16.3923 11.968 17.4325 10.5611 17.8434ZM18.5771 11.723C18.5771 11.8777 18.4516 12.0034 18.2982 12.0034H16.2811V14.0321C16.2811 14.1867 16.1556 14.3124 16.0032 14.3124H15.4286C15.2738 14.3124 15.1488 14.1867 15.1488 14.0321V12.0034H13.1331C12.9792 12.0034 12.8542 11.8787 12.8542 11.723V11.1464C12.8542 10.9917 12.9792 10.8651 13.1331 10.8651H15.1488V8.83831C15.1488 8.68316 15.2738 8.55796 15.4286 8.55796H16.0032C16.1556 8.55796 16.2811 8.68316 16.2811 8.83831V10.8651H18.2978C18.4511 10.8651 18.5766 10.9907 18.5766 11.1454V11.723H18.5771Z" transform="translate(0 -0.000488281)" fill="white"/>
</svg>
