<svg width="24" height="24" viewBox="0 0 24 24" fill="none" xmlns="http://www.w3.org/2000/svg">
<path d="M2.3888 4.80464C3.70581 4.80464 4.77952 3.72722 4.77952 2.40232C4.77952 1.87932 4.6093 1.39644 4.32753 1.00201C3.89334 0.396842 3.18747 4.35158e-07 2.39024 4.35158e-07C1.59253 4.35158e-07 0.887146 0.396358 0.451988 1.00153C0.169256 1.39596 0.000482459 1.87884 1.62184e-06 2.40184C-0.00144089 3.72674 1.07131 4.80464 2.3888 4.80464Z" transform="translate(9.54785 9.59717)" fill="white"/>
<path d="M2.30177 2.31338V0.299686V1.84389e-08L2.0022 0.000966677L3.59512e-07 0.00725065L0.00769319 2.32111L2.30177 2.31338Z" transform="translate(14.8535 6.74756)" fill="white"/>
<path d="M11.9373 0C5.35508 0 0 5.38323 0 12C0 18.6163 5.35508 24 11.9373 24C18.5189 24 23.8745 18.6163 23.8745 12C23.8745 5.38323 18.5199 0 11.9373 0ZM18.7262 10.5997V16.1874C18.7262 17.6428 17.5491 18.8256 16.1023 18.8256H7.77224C6.32493 18.8256 5.14832 17.6428 5.14832 16.1874V10.5997V7.81358C5.14832 6.35866 6.32493 5.17586 7.77224 5.17586H16.1018C17.5491 5.17586 18.7262 6.35866 18.7262 7.81358V10.5997Z" transform="translate(0 -0.000488281)" fill="white"/>
<path d="M9.18013 1.40031C9.18013 3.45799 7.51452 5.13333 5.46663 5.13333C3.41875 5.13333 1.75361 3.45799 1.75361 1.40031C1.75361 0.905341 1.8517 0.432128 2.02673 4.13031e-07H-1.06386e-07V5.58769C-1.06386e-07 6.30984 0.583255 6.89471 1.30114 6.89471H9.63068C10.3476 6.89471 10.9318 6.30984 10.9318 5.58769V4.13031e-07H8.90413C9.0806 0.432128 9.18013 0.905341 9.18013 1.40031Z" transform="translate(6.47046 10.5991)" fill="white"/>
</svg>
