<svg width="18" height="22" id="phone" viewBox="0 0 18 22" fill="none" xmlns="http://www.w3.org/2000/svg">
<path d="M16.9677 14.3034C15.7756 13.1113 14.4989 12.1079 14.4989 12.1079L12.6386 13.9681L5.19516 6.52469L7.05541 4.66439C7.05541 4.66439 6.05199 3.38764 4.85988 2.19553C3.66776 1.00347 2.39101 0 2.39101 0C2.39101 0 0.162068 2.05053 0.0121213 3.67692C-0.188438 5.85383 2.11589 9.81174 5.73372 13.4296C9.35155 17.0474 13.3095 19.3517 15.4864 19.1512C17.1127 19.0012 19.1633 16.7723 19.1633 16.7723C19.1633 16.7723 18.1598 15.4954 16.9677 14.3034Z" transform="translate(1.08691) rotate(9.27001)" fill="#667189"/>
</svg>
