<svg width="24" height="24" viewBox="0 0 24 24" fill="none" xmlns="http://www.w3.org/2000/svg">
<path d="M11.9373 0C5.35508 0 0 5.38323 0 12C0 18.6163 5.35508 24 11.9373 24C18.5189 24 23.8745 18.6163 23.8745 12C23.8745 5.38323 18.5199 0 11.9373 0ZM17.2625 9.25352C17.2678 9.37243 17.2707 9.49231 17.2707 9.61218C17.2707 13.2621 14.5078 17.4693 9.45277 17.4693C7.90111 17.4693 6.45667 17.0135 5.24112 16.2294C5.45605 16.2551 5.67483 16.2681 5.8965 16.2681C7.18418 16.2681 8.36848 15.8263 9.309 15.0858C8.10691 15.0636 7.09186 14.265 6.74229 13.1673C6.90962 13.1992 7.08224 13.2171 7.25871 13.2171C7.50923 13.2171 7.75253 13.1842 7.98285 13.1209C6.72594 12.8676 5.77918 11.7516 5.77918 10.4126C5.77918 10.401 5.77918 10.3889 5.77966 10.3778C6.1499 10.5842 6.57352 10.7089 7.02358 10.723C6.28694 10.2285 5.80177 9.38258 5.80177 8.42455C5.80177 7.91799 5.93689 7.44333 6.17346 7.03537C7.52798 8.70684 9.55326 9.80601 11.8363 9.92202C11.7892 9.71949 11.7656 9.50922 11.7656 9.29219C11.7656 7.76718 12.9956 6.53025 14.5126 6.53025C15.3031 6.53025 16.0162 6.86571 16.5182 7.40224C17.1447 7.2785 17.7313 7.04938 18.2636 6.73181C18.0569 7.3771 17.6227 7.91799 17.0538 8.26021C17.6102 8.19351 18.141 8.0456 18.6319 7.82567C18.2655 8.37864 17.7996 8.86538 17.2625 9.25352Z" transform="translate(0 -0.000488281)" fill="white"/>
</svg>
