<svg width="80" height="80" viewBox="0 0 80 80" fill="none" xmlns="http://www.w3.org/2000/svg">
<path fill-rule="evenodd" clip-rule="evenodd" d="M40 80C65.5 80 80 56.5 80 40C80 26.5 62.0913 0 40 0C8 0 0 17.9087 0 40C0 62.0913 26 80 40 80ZM18.9395 41.0605L28.4854 50.6064C29.071 51.1924 30.0208 51.1924 30.6067 50.6064C31.1924 50.021 31.1924 49.0713 30.6067 48.4854L23.6213 41.5H60V38.5H23.6213L30.6067 31.5146C31.1924 30.9287 31.1924 29.979 30.6067 29.3936C30.0208 28.8076 29.071 28.8076 28.4854 29.3936L18.9395 38.9395C18.3535 39.5249 18.3535 40.4751 18.9395 41.0605Z" fill="#DBE824"/>
</svg>
