<svg width="92" height="42" viewBox="0 0 92 42" fill="none" xmlns="http://www.w3.org/2000/svg">
<path fill-rule="evenodd" clip-rule="evenodd" d="M45.4277 35.4337C70.5168 35.4337 90.229 27.2568 90.8553 13.9691C90.8554 4.18436 70.5166 1.26644e-05 45.4275 0C20.3387 -9.11607e-06 -0.000125874 4.18433 1.64636e-09 13.9691C-0.000211297 28.2789 20.3386 35.4338 45.4277 35.4337ZM45.4283 29.9821C62.9038 29.9821 77.071 24.4907 77.0709 17.7166C77.0712 10.9425 62.9039 5.4511 45.4284 5.45115C27.9524 5.45107 13.7854 10.9425 13.7854 17.7166C13.7853 24.4907 27.9524 29.9821 45.4283 29.9821Z" transform="translate(0.294678 5.74658) rotate(-0.832748)" fill="#EE6F6F"/>
<path fill-rule="evenodd" clip-rule="evenodd" d="M45.4275 35.4337C70.5166 35.4337 90.8557 27.5016 90.8553 17.7169C90.8554 7.93219 70.5169 1.26644e-05 45.4278 0C20.3387 -1.26643e-05 -0.000125875 7.93216 5.84269e-10 17.7169C-0.000118239 27.5016 20.3386 35.4338 45.4275 35.4337ZM46.0192 26.9469C62.5194 26.9468 75.3036 23.7797 75.3037 17.5563C75.3039 11.3327 61.9275 6.28746 45.4277 6.28753C28.9277 6.28747 15.5517 11.3327 15.5518 17.5563C15.5517 23.7799 29.5194 26.9468 46.0192 26.9469Z" transform="translate(0.235596 1.65845) rotate(-0.832748)" fill="#FE7A7A"/>
<path fill-rule="evenodd" clip-rule="evenodd" d="M34.787 25.1505C53.9995 25.1505 69.5742 19.5533 69.5742 12.2609C69.5743 4.96852 53.9993 5.32735e-05 34.7868 0C15.5746 7.23322e-05 2.65711e-05 4.96858 0 12.2609C-2.83451e-05 19.5532 15.5746 25.1506 34.787 25.1505ZM34.7876 22.4559C51.2874 22.4558 64.6633 19.231 64.6632 12.8941C64.6635 6.55698 51.2875 2.69469 34.7872 2.69475C18.2874 2.69469 4.91154 6.55697 4.91148 12.8941C4.91142 19.231 18.2874 22.4558 34.7876 22.4559Z" transform="translate(10.9399 5.99451) rotate(-0.832748)" fill="#F77171"/>
<path d="M1.07949 0.336916C-0.557283 3.48082 -0.147906 7.07372 1.07953 10.2174C3.12584 9.76826 10.0832 9.76826 12.1295 10.2174C13.7666 5.72622 12.9481 2.1333 11.7203 0.336929C6.8097 -0.112292 6.80953 -0.112279 1.08008 0.33687L1.07949 0.336916Z" transform="translate(39.2539 0.754395) rotate(-0.832748)" fill="#FDFDFD" fill-opacity="0.844"/>
<path d="M2.02959 1.69748C-0.759163 4.9226 -0.253251 8.95135 1.04939 12.0584C4.23656 8.37239 11.9781 6.8013 18.6212 10.6528C13.184 5.86802 17.6739 5.28923 18.0617 4.3797C14.67 -0.464113 8.51124 -1.18501 2.02959 1.69748Z" transform="matrix(0.999898 0.0143133 -0.00942272 0.999956 0.450928 12.4762)" fill="#FDFDFD" fill-opacity="0.844"/>
<path d="M2.02959 1.69748C-0.759163 4.9226 -0.253251 8.95135 1.04939 12.0584C4.23656 8.37239 11.9781 6.8013 18.6212 10.6528C13.184 5.86802 17.6739 5.28923 18.0617 4.3797C14.67 -0.464113 8.51124 -1.18501 2.02959 1.69748Z" transform="matrix(-0.999059 0.0433686 0.0384817 0.999259 91.0254 11.1188)" fill="#FDFDFD" fill-opacity="0.844"/>
<path d="M1.37307 0.40422C-0.708844 4.47412 -0.188131 9.12526 1.37313 13.1948C4.67213 12.9191 12.0386 12.8516 15.4283 13.1948C17.5106 7.38088 16.4695 2.7297 14.9078 0.404236C7.84731 -0.134746 7.84714 -0.134731 1.37337 0.404194L1.37307 0.40422Z" transform="matrix(-0.999771 0.0214086 -0.0202426 -0.999795 54.9902 40.6423)" fill="#FDFDFD" fill-opacity="0.844"/>
</svg>
