<?xml version="1.0" encoding="utf-8"?>
<svg version="1.1" id="webstorm" xmlns="http://www.w3.org/2000/svg" xmlns:xlink="http://www.w3.org/1999/xlink" x="0px" y="0px"
	 viewBox="0 0 128 25" style="enable-background:new 0 0 128 25;" xml:space="preserve">
<style type="text/css">
	.st0{fill:#2788B5;}
</style>
<title>Artboard 13</title>
<g id="plain-wordmark">
	<path class="st0" d="M43,20.7L39.7,7.9h1.7l1.5,6.5c0.4,1.6,0.7,3.2,0.9,4.4l0,0c0.2-1.3,0.6-2.8,1-4.4l1.7-6.4h1.7l1.6,6.5
		c0.4,1.5,0.7,3,0.9,4.4l0,0c0.3-1.4,0.6-2.8,1-4.4L53.6,8h1.7l-3.6,12.7H50l-1.6-6.6c-0.4-1.4-0.6-2.8-0.8-4.2l0,0
		c-0.3,1.4-0.6,2.8-1,4.2l-1.8,6.6H43z"/>
	<path class="st0" d="M57.1,16.4c-0.1,1.6,1,3,2.7,3.2c0.2,0,0.3,0,0.5,0c0.9,0,1.7-0.1,2.5-0.5l0.3,1.2c-0.9,0.4-2,0.6-3,0.6
		c-2.3,0.1-4.4-1.6-4.5-4c0-0.2,0-0.4,0-0.6c0-2.8,1.6-4.9,4.3-4.9c3,0,3.8,2.6,3.8,4.3c0,0.3,0,0.5-0.1,0.8L57.1,16.4L57.1,16.4z
		 M62,15.2c0.2-1.3-0.7-2.5-2-2.7c-0.1,0-0.2,0-0.3,0c-1.4,0.1-2.5,1.3-2.5,2.7L62,15.2z"/>
	<path class="st0" d="M65.6,20.7c0-0.6,0.1-1.6,0.1-2.4V7.3h1.6V13l0,0c0.6-1.1,1.8-1.7,3.1-1.7c2.3,0,3.9,1.9,3.9,4.7
		c0,3.3-2.1,4.9-4.1,4.9c-1.3,0.1-2.5-0.6-3.1-1.7h-0.1L67,20.7H65.6z M67.3,17c0,0.2,0,0.4,0.1,0.6c0.3,1.1,1.3,1.9,2.5,1.9
		c1.7,0,2.8-1.4,2.8-3.5c0-1.8-0.9-3.4-2.7-3.4c-1.2,0-2.2,0.8-2.5,2c-0.1,0.2-0.1,0.5-0.1,0.7L67.3,17L67.3,17z"/>
	<path class="st0" d="M76.4,17.7c1,0.5,2.1,0.8,3.2,0.8c1.3,0,2-0.6,2-1.4s-0.6-1.2-2.1-1.8c-2.1-0.7-3.5-1.9-3.5-3.8
		c0-2.2,1.8-3.8,4.8-3.8c1.1,0,2.2,0.2,3.2,0.6l-0.6,2.3c-0.8-0.4-1.7-0.6-2.7-0.6c-1.2,0-1.8,0.6-1.8,1.2c0,0.8,0.7,1.2,2.4,1.8
		c2.2,0.8,3.3,2,3.3,3.8c0,2.1-1.6,4-5.1,4c-1.2,0-2.5-0.2-3.6-0.8L76.4,17.7z"/>
	<path class="st0" d="M89.5,8.8v2.7h2.1v2.1h-2.1v3.3c0,1.1,0.3,1.6,1.1,1.6c0.3,0,0.6,0,0.8-0.1v2.2c-0.6,0.2-1.2,0.3-1.9,0.2
		c-0.8,0-1.6-0.3-2.2-0.8c-0.6-0.8-0.9-1.8-0.8-2.7v-3.8h-1.2v-2.1h1.2v-2L89.5,8.8z"/>
	<path class="st0" d="M102.3,16c0.2,2.6-1.8,4.8-4.3,4.9c-0.2,0-0.4,0-0.5,0c-2.5,0.1-4.6-1.8-4.8-4.3c0-0.2,0-0.3,0-0.5
		c-0.2-2.5,1.8-4.7,4.3-4.9c0.2,0,0.4,0,0.6,0c2.5-0.1,4.6,1.8,4.7,4.2C102.3,15.6,102.3,15.8,102.3,16z M95.6,16
		c0,1.6,0.7,2.8,1.9,2.8s1.8-1.1,1.8-2.8c0-1.4-0.5-2.8-1.8-2.8S95.6,14.7,95.6,16z"/>
	<path class="st0" d="M104,14.5c0-1.4,0-2.2-0.1-3h2.5l0.1,1.7h0.1c0.3-1.1,1.3-1.9,2.5-1.9c0.2,0,0.4,0,0.6,0V14
		c-0.3-0.1-0.5-0.1-0.8-0.1c-0.9-0.1-1.8,0.5-2,1.5c0,0.2-0.1,0.4-0.1,0.6v4.7H104V14.5z"/>
	<path class="st0" d="M111.2,14.4c0-1.2,0-2.1-0.1-3h2.4l0.1,1.3h0.1c0.6-0.9,1.7-1.5,2.8-1.5c1.1-0.1,2.1,0.6,2.5,1.6l0,0
		c0.3-0.4,0.7-0.8,1.2-1.1c0.5-0.3,1.1-0.5,1.8-0.5c1.8,0,3.1,1.2,3.1,4v5.4h-2.8v-5c0-1.3-0.4-2.1-1.4-2.1c-0.6,0-1.1,0.4-1.3,1
		c-0.1,0.2-0.1,0.5-0.1,0.7v5.4h-2.8v-5.2c0-1.2-0.4-2-1.3-2c-0.6,0-1.1,0.4-1.3,1c-0.1,0.2-0.1,0.5-0.1,0.7v5.4h-2.8L111.2,14.4
		L111.2,14.4L111.2,14.4z"/>
	<path class="st0" d="M18.5,23.1c0.3-0.3,0.6-0.7,1-1.2l0.2-0.2c0.2-0.3,0.4-0.5,0.6-0.7c0.5-0.5,0.9-1,1.3-1.6
		c0.6-0.7,0.9-1.5,0.9-2.4c0-0.5-0.1-0.9-0.4-1.3c-0.3-0.3-0.7-0.7-1-1c-0.4-0.4-0.8-0.8-1.3-1.4c-0.5-0.6-0.9-1.2-1.2-1.9
		c-0.3-0.7-0.6-1.5-0.7-2.3l-1.5-7.8H12l-2.2,9.9L8,1.3H2.8l4.6,22.4h4.3l2.2-9.7l1.9,9.7h2L18.5,23.1z"/>
	<path class="st0" d="M27.5,2.6c0.5-0.5,0.8-1,1.1-1.3h-6.9c-0.7,0.8-1.2,1.6-1.8,2.4C19.2,5,18.8,6.5,18.8,8v0.7
		c0.1,0.9,0.3,1.8,0.7,2.6c0.2,0.4,0.5,0.8,0.8,1.2l0,0l0.1,0.2c0.7,0.8,1.9,1.8,2.4,2.4c0.4,0.5,0.6,1.2,0.6,1.9
		c0,1.1-0.3,2.2-1.1,3.1c-0.6,0.8-1.3,1.6-2,2.3c-0.5,0.5-0.8,1-1.1,1.3h7.1c0.6-0.8,1.1-1.6,1.5-2.4C28.6,20,29,18.5,29,17v-0.7
		c-0.1-0.9-0.3-1.8-0.7-2.6c-0.2-0.4-0.5-0.8-0.8-1.2l0,0l-0.1-0.2c-0.7-0.8-1.9-1.8-2.4-2.4c-0.4-0.5-0.6-1.2-0.6-1.9
		c0-1.1,0.3-2.2,1.1-3.1C26.1,4.1,26.8,3.4,27.5,2.6z"/>
</g>
</svg>
