<?xml version="1.0" encoding="utf-8"?>
<!-- Generator: Adobe Illustrator 21.1.0, SVG Export Plug-In . SVG Version: 6.00 Build 0)  -->
<svg version="1.1" id="Слой_1" xmlns="http://www.w3.org/2000/svg" xmlns:xlink="http://www.w3.org/1999/xlink" x="0px" y="0px"
	 viewBox="0 0 17 16" style="enable-background:new 0 0 17 16;" xml:space="preserve">
<g>
	<g transform="translate(-339 -886)">
		<g>
			<path id="j0mlb" style="fill:#FFC000;" d="M353.3,892.7c0-0.2-0.1-0.3-0.4-0.3l-3.7-0.5l-1.7-3.4c-0.1-0.2-0.2-0.3-0.4-0.3
				s-0.3,0.1-0.4,0.3L345,892l-3.7,0.5c-0.3,0-0.4,0.2-0.4,0.3s0.1,0.2,0.2,0.4l2.7,2.7l-0.6,3.8v0.2c0,0.1,0,0.2,0.1,0.3
				s0.1,0.1,0.2,0.1s0.2,0,0.3-0.1l3.3-1.8l3.3,1.8c0.1,0.1,0.2,0.1,0.3,0.1c0.1,0,0.2,0,0.2-0.1c0.1-0.1,0.1-0.2,0.1-0.3v-0.2
				l-0.6-3.8l2.7-2.7C353.2,892.9,353.3,892.8,353.3,892.7L353.3,892.7z"/>
		</g>
		<g>
			<g>
				<defs>
					<path id="SVGID_1_" d="M339,902v-16h17v16H339z M353.3,892.7c0-0.2-0.1-0.3-0.4-0.3l-3.7-0.5l-1.7-3.4
						c-0.1-0.2-0.2-0.3-0.4-0.3s-0.3,0.1-0.4,0.3L345,892l-3.7,0.5c-0.3,0-0.4,0.2-0.4,0.3s0.1,0.2,0.2,0.4l2.7,2.7l-0.6,3.8v0.2
						c0,0.1,0,0.2,0.1,0.3s0.1,0.1,0.2,0.1s0.2,0,0.3-0.1l3.3-1.8l3.3,1.8c0.1,0.1,0.2,0.1,0.3,0.1c0.1,0,0.2,0,0.2-0.1
						c0.1-0.1,0.1-0.2,0.1-0.3v-0.2l-0.6-3.8l2.7-2.7C353.2,892.9,353.3,892.8,353.3,892.7L353.3,892.7z"/>
				</defs>
				<clipPath id="SVGID_2_">
					<use xlink:href="#SVGID_1_"  style="overflow:visible;"/>
				</clipPath>
				<g style="clip-path:url(#SVGID_2_);">

						<path id="j0mlb_1_" style="fill:#FFFFFF;fill-opacity:0;stroke:#FFFFFF;stroke-width:4;stroke-linecap:round;stroke-linejoin:round;stroke-miterlimit:50;" d="
						M353.3,892.7c0-0.2-0.1-0.3-0.4-0.3l-3.7-0.5l-1.7-3.4c-0.1-0.2-0.2-0.3-0.4-0.3s-0.3,0.1-0.4,0.3L345,892l-3.7,0.5
						c-0.3,0-0.4,0.2-0.4,0.3s0.1,0.2,0.2,0.4l2.7,2.7l-0.6,3.8v0.2c0,0.1,0,0.2,0.1,0.3s0.1,0.1,0.2,0.1s0.2,0,0.3-0.1l3.3-1.8
						l3.3,1.8c0.1,0.1,0.2,0.1,0.3,0.1c0.1,0,0.2,0,0.2-0.1c0.1-0.1,0.1-0.2,0.1-0.3v-0.2l-0.6-3.8l2.7-2.7
						C353.2,892.9,353.3,892.8,353.3,892.7L353.3,892.7z"/>
				</g>
			</g>
		</g>
	</g>
</g>
</svg>
